name D:\school\WTK\thesis\model\3dpredictsim\Results\debug\Pog_s1_tmt_bCst_d00_k1000_ig24_act_TTC.mot
datacolumns 128
datarows 4
range 1.53589797 1.56661593
endheader
time	pelvis_tilt	pelvis_list	pelvis_rotation	pelvis_tx	pelvis_ty	pelvis_tz	hip_flexion_l	hip_adduction_l	hip_rotation_l	hip_flexion_r	hip_adduction_r	hip_rotation_r	knee_angle_l	knee_angle_r	ankle_angle_l	ankle_angle_r	subtalar_angle_l	subtalar_angle_r	tmt_angle_l	tmt_angle_r	mtp_angle_l	mtp_angle_r	lumbar_extension	lumbar_bending	lumbar_rotation	arm_flex_l	arm_add_l	arm_rot_l	arm_flex_r	arm_add_r	arm_rot_r	elbow_flex_l	elbow_flex_r	pro_sup_l	pro_sup_r	glut_med1_l/activation	glut_med2_l/activation	glut_med3_l/activation	glut_min1_l/activation	glut_min2_l/activation	glut_min3_l/activation	semimem_l/activation	semiten_l/activation	bifemlh_l/activation	bifemsh_l/activation	sar_l/activation	add_long_l/activation	add_brev_l/activation	add_mag1_l/activation	add_mag2_l/activation	add_mag3_l/activation	tfl_l/activation	pect_l/activation	grac_l/activation	glut_max1_l/activation	glut_max2_l/activation	glut_max3_l/activation	iliacus_l/activation	psoas_l/activation	quad_fem_l/activation	gem_l/activation	peri_l/activation	rect_fem_l/activation	vas_med_l/activation	vas_int_l/activation	vas_lat_l/activation	med_gas_l/activation	lat_gas_l/activation	soleus_l/activation	tib_post_l/activation	flex_dig_l/activation	flex_hal_l/activation	tib_ant_l/activation	per_brev_l/activation	per_long_l/activation	per_tert_l/activation	ext_dig_l/activation	ext_hal_l/activation	ercspn_l/activation	intobl_l/activation	extobl_l/activation	glut_med1_r/activation	glut_med2_r/activation	glut_med3_r/activation	glut_min1_r/activation	glut_min2_r/activation	glut_min3_r/activation	semimem_r/activation	semiten_r/activation	bifemlh_r/activation	bifemsh_r/activation	sar_r/activation	add_long_r/activation	add_brev_r/activation	add_mag1_r/activation	add_mag2_r/activation	add_mag3_r/activation	tfl_r/activation	pect_r/activation	grac_r/activation	glut_max1_r/activation	glut_max2_r/activation	glut_max3_r/activation	iliacus_r/activation	psoas_r/activation	quad_fem_r/activation	gem_r/activation	peri_r/activation	rect_fem_r/activation	vas_med_r/activation	vas_int_r/activation	vas_lat_r/activation	med_gas_r/activation	lat_gas_r/activation	soleus_r/activation	tib_post_r/activation	flex_dig_r/activation	flex_hal_r/activation	tib_ant_r/activation	per_brev_r/activation	per_long_r/activation	per_tert_r/activation	ext_dig_r/activation	ext_hal_r/activation	ercspn_r/activation	intobl_r/activation	extobl_r/activation	
          1.53589797	         -1.90500091	          1.66300336	         -7.45753175	          1.91991526	          0.86646165	          0.00063299	         23.80991630	         -2.73851772	         10.57263400	         -4.24223804	         -5.91331625	         -2.75700228	         -6.22423144	        -29.79929165	         -2.24751910	         -4.32477092	          6.92647984	         16.81381690	          0.05216259	          1.77525821	          7.89916315	         29.19991582	         -6.22991656	          1.96521588	          2.09435468	         -9.72828430	        -30.02977523	          5.34925206	         16.41613502	        -26.70871560	          9.17553328	         27.56350425	         63.16181436	         86.51662706	         86.51662706	          0.31392236	          0.31571360	          0.31911772	          0.31943815	          0.31659739	          0.31856982	          0.36172863	          0.33546600	          0.37127532	          0.30203201	          0.31516964	          0.32178734	          0.33884928	          0.34161608	          0.34254756	          0.37028799	          0.30323874	          0.32360444	          0.33013461	          0.34734355	          0.36145752	          0.38399183	          0.27922659	          0.28184854	          0.34441977	          0.32346828	          0.31831373	          0.31015616	          0.35964895	          0.36009265	          0.36255401	          0.10160459	          0.16131413	          0.07271164	          0.28120549	          0.26488213	          0.26245318	          0.61717009	          0.28790746	          0.23639736	          0.37472601	          0.51743499	          0.39104821	          0.53641479	          0.44676381	          0.29537300	          0.40783958	          0.29993722	          0.24305035	          0.36266835	          0.34168876	          0.31802889	          0.34620988	          0.32974820	          0.32040502	          0.36728627	          0.33995804	          0.33084122	          0.30961585	          0.30462379	          0.30554029	          0.29713066	          0.33024938	          0.33171190	          0.32347451	          0.34661835	          0.33572735	          0.25617711	          0.38714011	          0.39056725	          0.25117616	          0.29438940	          0.31125626	          0.28372769	          0.24284258	          0.24259460	          0.21919044	          0.46258996	          0.40129367	          0.56579724	          0.41486251	          0.30546160	          0.32419098	          0.23873118	          0.27071311	          0.25807661	          0.25820728	          0.20256338	          0.29114881	          0.32851038	          0.17859818	          0.23699179	
          1.54613729	         -1.94502599	          1.35589266	         -7.62293878	          1.93643322	          0.86676367	          0.00156585	         22.92816180	         -2.56874821	         10.86492522	         -4.01858346	         -6.11765782	         -3.31422449	         -6.32887742	        -31.31082003	         -2.86950246	         -7.79966411	          7.17801115	         17.83593577	          0.01979959	          1.65461204	          7.97251234	         30.44350323	         -5.72000537	          1.55585096	          2.61486808	        -10.60535634	        -30.07029663	          5.41867482	         16.67669945	        -26.58790861	          9.30855110	         27.21036761	         64.21793340	         86.51662706	         86.51662706	          0.31064067	          0.31273029	          0.31561870	          0.31629450	          0.31396323	          0.31678721	          0.37804210	          0.34400956	          0.38832310	          0.29633848	          0.30967770	          0.32331496	          0.34479449	          0.34826692	          0.34842043	          0.38629513	          0.29731832	          0.32374255	          0.33215898	          0.34943935	          0.37139602	          0.40635078	          0.26552118	          0.26863359	          0.34906831	          0.32156612	          0.31092219	          0.29702028	          0.36427420	          0.36515284	          0.36740470	          0.11337445	          0.17679535	          0.08637914	          0.31446256	          0.26855925	          0.26967365	          0.64819820	          0.26860457	          0.22251309	          0.35639509	          0.48912608	          0.39001838	          0.52244360	          0.41810234	          0.30089176	          0.41089938	          0.28919924	          0.23033184	          0.36429934	          0.33910226	          0.31247705	          0.34327491	          0.33443997	          0.32081023	          0.36863444	          0.33868476	          0.34807590	          0.31748599	          0.30822647	          0.30775723	          0.29976773	          0.32750851	          0.33386753	          0.32486138	          0.34501412	          0.33325963	          0.25410831	          0.39434614	          0.39609597	          0.24267066	          0.29077289	          0.30599470	          0.27065082	          0.23494047	          0.23425087	          0.20889872	          0.44882979	          0.39714715	          0.51230653	          0.38846366	          0.30423858	          0.31989609	          0.23267184	          0.27981446	          0.27269473	          0.25924289	          0.20648741	          0.29105956	          0.32739245	          0.19294964	          0.23511694	
          1.55637661	         -1.96775287	          1.09349326	         -7.80614724	          1.95325007	          0.86700830	          0.00272728	         22.02245474	         -2.54808033	         11.60065969	         -3.68643570	         -6.46207822	         -3.80940030	         -6.75478881	        -32.92919755	         -3.54025430	        -11.47316085	          7.78971643	         19.27527521	         -0.02378702	          1.59549212	          8.19137790	         30.31119103	         -5.16853327	          1.04458060	          3.15730979	        -11.47438677	        -30.10373545	          5.49585224	         16.84845280	        -26.45829879	          9.47378285	         26.84424898	         65.11786958	         86.51662706	         86.51662706	          0.34809167	          0.32208608	          0.30776568	          0.32703992	          0.32154673	          0.31934739	          0.39653772	          0.35539712	          0.40234791	          0.29160823	          0.30297949	          0.32505758	          0.35057688	          0.35007720	          0.35272187	          0.40697254	          0.29360363	          0.32354739	          0.33261046	          0.34910350	          0.36825720	          0.41136570	          0.25326836	          0.25554338	          0.33001322	          0.31504210	          0.30206456	          0.28054198	          0.36949027	          0.37089796	          0.37297756	          0.12106124	          0.18708963	          0.08949779	          0.30931187	          0.26922502	          0.27160970	          0.65210874	          0.26106435	          0.22429310	          0.34744266	          0.48058208	          0.38792363	          0.48176921	          0.39414955	          0.29555133	          0.40846737	          0.27776266	          0.21818077	          0.36315904	          0.33506294	          0.30729522	          0.34084823	          0.34321199	          0.32287477	          0.37433894	          0.33726821	          0.37361613	          0.33107165	          0.31506528	          0.31142685	          0.30201066	          0.32600824	          0.33754205	          0.32888130	          0.34328091	          0.33036409	          0.25183534	          0.40523004	          0.40591394	          0.23550632	          0.28777787	          0.30253781	          0.25364992	          0.22361986	          0.22247973	          0.19577895	          0.42949868	          0.39037998	          0.45464503	          0.36107628	          0.30261060	          0.31417947	          0.23886059	          0.28875146	          0.28425617	          0.26594102	          0.22341850	          0.29592703	          0.34847612	          0.22141060	          0.25307758	
          1.56661593	         -1.97898619	          0.86858425	         -7.95072761	          1.97024399	          0.86722030	          0.00393712	         21.10895329	         -2.61500820	         12.15044278	         -3.25224318	         -6.98184135	         -4.39905293	         -7.21864197	        -34.63915732	         -4.17309000	        -15.07438014	          8.53727326	         21.19365625	         -0.01572670	          1.41390824	          8.45927987	         28.48458577	         -4.58808972	          0.46672576	          3.67385370	        -12.29711802	        -30.13213073	          5.57734970	         16.91151648	        -26.32417163	          9.67506265	         26.47647236	         65.82883136	         86.51662706	         86.51662706	          0.37829007	          0.32661742	          0.29709187	          0.33521792	          0.32657497	          0.31960457	          0.40728835	          0.36659274	          0.40961190	          0.28695598	          0.29559295	          0.33000698	          0.35728332	          0.35464369	          0.35862968	          0.42398863	          0.29091596	          0.32326479	          0.33408266	          0.34727237	          0.36220024	          0.41661019	          0.24224320	          0.24467697	          0.31263044	          0.30859778	          0.29436053	          0.26500546	          0.37534964	          0.37717772	          0.37932891	          0.13218245	          0.19791192	          0.09469843	          0.29702619	          0.26819305	          0.27119608	          0.59716415	          0.29030983	          0.26030771	          0.35859239	          0.48352895	          0.38103627	          0.44317740	          0.38148356	          0.29332805	          0.40787027	          0.27408531	          0.21210465	          0.36494951	          0.33548757	          0.30686364	          0.33885054	          0.35441033	          0.32636557	          0.39413397	          0.34043783	          0.37544427	          0.33057841	          0.31313238	          0.31042810	          0.29803902	          0.32696424	          0.33875892	          0.33295029	          0.34190556	          0.32723002	          0.24709461	          0.41784882	          0.42009338	          0.23039968	          0.28676533	          0.30344221	          0.23603978	          0.20803598	          0.20672176	          0.17982862	          0.41209038	          0.38497918	          0.40791428	          0.33409670	          0.30089214	          0.30755957	          0.26063488	          0.29635370	          0.29725863	          0.27298496	          0.24307655	          0.30478133	          0.35683049	          0.22777877	          0.26566736	
